<?xml version="1.0" encoding="UTF-8"?>
<svg width="14px" height="14px" viewBox="0 0 14 14" version="1.1" xmlns="http://www.w3.org/2000/svg" xmlns:xlink="http://www.w3.org/1999/xlink">
    <title>形状结合</title>
    <g id="UI" stroke="none" stroke-width="1" fill="none" fill-rule="evenodd">
        <g id="新增-注册API" transform="translate(-841.000000, -930.000000)" fill="#1890FF" fill-rule="nonzero">
            <g id="减备份-4" transform="translate(841.000000, 930.000000)">
                <path d="M12.359375,0 C13.2658203,0 14,0.734179688 14,1.640625 L14,1.640625 L14,12.359375 C14,13.2658203 13.2658203,14 12.359375,14 L12.359375,14 L1.640625,14 C0.734179688,14 0,13.2658203 0,12.359375 L0,12.359375 L0,1.640625 C0,0.734179688 0.734179688,0 1.640625,0 L1.640625,0 Z M12.359375,0.875 L1.640625,0.875 C1.21816406,0.875 0.875,1.21816406 0.875,1.640625 L0.875,1.640625 L0.875,12.359375 C0.875,12.7818359 1.21816406,13.125 1.640625,13.125 L1.640625,13.125 L12.359375,13.125 C12.7818359,13.125 13.125,12.7818359 13.125,12.359375 L13.125,12.359375 L13.125,1.640625 C13.125,1.21816406 12.7818359,0.875 12.359375,0.875 L12.359375,0.875 Z M7,3.5 C7.24199219,3.5 7.4375,3.69550781 7.4375,3.9375 L7.4375,3.9375 L7.437,6.562 L10.0625,6.5625 C10.2776042,6.5625 10.4559799,6.71697531 10.4929634,6.921262 L10.5,7 C10.5,7.24199219 10.3044922,7.4375 10.0625,7.4375 L10.0625,7.4375 L7.437,7.437 L7.4375,10.0625 C7.4375,10.2776042 7.28302469,10.4559799 7.078738,10.4929634 L7,10.5 C6.75800781,10.5 6.5625,10.3044922 6.5625,10.0625 L6.5625,10.0625 L6.562,7.437 L3.9375,7.4375 C3.72239583,7.4375 3.54402006,7.28302469 3.50703661,7.078738 L3.5,7 C3.5,6.75800781 3.69550781,6.5625 3.9375,6.5625 L3.9375,6.5625 L6.562,6.562 L6.5625,3.9375 C6.5625,3.72239583 6.71697531,3.54402006 6.921262,3.50703661 Z" id="形状结合"></path>
            </g>
        </g>
    </g>
</svg>