<?xml version="1.0" encoding="UTF-8"?>
<svg width="16px" height="14px" viewBox="0 0 16 14" version="1.1" xmlns="http://www.w3.org/2000/svg"
  xmlns:xlink="http://www.w3.org/1999/xlink">
  <title>返回</title>
  <desc>Created with Sketch.</desc>
  <g id="UI" stroke="none" stroke-width="1" fill="none" fill-rule="evenodd">
    <g id="返回" fill="#1890FF" fill-rule="nonzero">
      <path
        d="M13.7986676,4.02084225 C12.6989244,2.9210991 11.2358465,2.31522902 9.6809985,2.31522902 L3.08684717,2.31522902 L4.07309503,1.46944563 C4.4216342,1.17091182 4.46077697,0.646698416 4.16224315,0.29890839 C3.86370933,-0.0496307791 3.33949593,-0.0895226884 2.99226777,0.20901113 L0.302466824,2.51525043 C0.292540668,2.52386558 0.283550942,2.53322988 0.273999358,2.54221961 C0.266320634,2.54952376 0.258454623,2.55645334 0.251150471,2.56394478 C0.23916417,2.57611836 0.228114298,2.58885381 0.21687714,2.60158926 C0.20994756,2.60945527 0.203017979,2.61732128 0.196462971,2.62556186 C0.186162243,2.6382973 0.176610659,2.65159461 0.167059075,2.66489191 C0.160504067,2.67406892 0.153949058,2.68343322 0.147768622,2.6929848 C0.139340753,2.70590753 0.131474743,2.71901755 0.123796019,2.73231485 C0.117428296,2.74317744 0.111435146,2.75422731 0.105629281,2.76546447 C0.0990742723,2.77819991 0.0928938356,2.79112265 0.0869006849,2.80441995 C0.0812821062,2.81678082 0.0762253853,2.8291417 0.0711686644,2.84168985 C0.0659246575,2.85479987 0.0610552226,2.86809717 0.0565603596,2.88139448 C0.0524400685,2.89394264 0.0485070634,2.90667808 0.0449486301,2.91960081 C0.040828339,2.93420912 0.0370826199,2.94863014 0.0337114726,2.96342573 C0.0312767551,2.97466289 0.0290293236,2.98608733 0.0269691781,2.99769906 C0.0237853168,3.01511665 0.0209760274,3.03253425 0.0189158818,3.05013913 C0.0179794521,3.05856699 0.0172303082,3.06699486 0.0164811644,3.07561002 C0.0153574486,3.08834546 0.013484589,3.10089362 0.0129227312,3.11381635 C0.0106752997,3.17917915 0.0162938784,3.24379281 0.0288420377,3.30690818 C0.0295911815,3.31046661 0.0301530394,3.31402504 0.0309021832,3.31758348 C0.0355843322,3.33949593 0.041202911,3.3612211 0.0475706336,3.38275899 C0.0494434932,3.38875214 0.0511290668,3.39474529 0.0531892123,3.40073844 C0.0595569349,3.42021618 0.0664865154,3.43931935 0.0741652397,3.45823523 C0.0842863498,3.48347771 0.095726558,3.50817105 0.10843857,3.53221318 C0.111809717,3.53876819 0.115368151,3.54513592 0.11911387,3.55150364 C0.129040026,3.56910852 0.139340753,3.58633883 0.150390625,3.60319456 C0.153949058,3.60862586 0.157694777,3.61386986 0.161440497,3.61930116 C0.173426798,3.63653146 0.185787671,3.6533872 0.199084974,3.66968108 C0.202456122,3.67380137 0.206014555,3.67773437 0.209385702,3.68166738 C0.222308433,3.69702483 0.235980308,3.71200771 0.250026755,3.72642872 C0.252836045,3.72923801 0.255458048,3.73223459 0.258267337,3.73504388 L2.94544628,6.42147367 C3.10763592,6.58366331 3.31964362,6.66457085 3.53183861,6.66457085 C3.7440336,6.66457085 3.95735231,6.58347603 4.11954195,6.42147367 C4.44242295,6.09728168 4.44242295,5.57175728 4.11823095,5.24756528 L2.84674658,3.97570634 L9.68006207,3.97570634 C10.7919788,3.97570634 11.8375963,4.40871147 12.6238228,5.19493793 C13.4113602,5.98191353 13.8451145,7.02753104 13.8451145,8.14000963 C13.8451145,10.4366973 11.9754388,12.3056239 9.67875107,12.3063731 L3.14771511,12.3063731 C2.68980094,12.3063731 2.3182256,12.6779484 2.3182256,13.1366117 C2.3182256,13.595275 2.68980094,13.9668504 3.14771511,13.9668504 L9.6809985,13.9668504 C12.8922036,13.9661012 15.50503,11.3521511 15.50503,8.14019692 C15.50503,6.58422517 14.8997217,5.12114726 13.7986676,4.02084225 Z"
        id="路径"></path>
    </g>
  </g>
</svg>
