<?xml version="1.0" encoding="UTF-8"?>
<svg width="11px" height="12px" viewBox="0 0 11 12" version="1.1" xmlns="http://www.w3.org/2000/svg" xmlns:xlink="http://www.w3.org/1999/xlink">
    <title>形状</title>
    <g id="UI" stroke="none" stroke-width="1" fill="none" fill-rule="evenodd">
        <g id="API开发" transform="translate(-218.000000, -232.000000)" fill="#1890FF" fill-rule="nonzero">
            <g id="图层" transform="translate(218.000000, 232.000000)">
                <path d="M10.2858732,5.22500608 L10.4591807,5.33386037 C10.8143894,5.55729813 10.9218114,6.02565805 10.6983737,6.38229909 C10.6382173,6.47826275 10.5565766,6.55990347 10.4591807,6.62149208 L5.81425339,9.5390736 C5.56646664,9.69376128 5.2527944,9.69376128 5.00643995,9.5390736 L0.355783496,6.61576291 C0.000574748976,6.39232515 -0.106847251,5.92396523 0.116590509,5.56732419 C0.176746829,5.47136053 0.258387549,5.38971981 0.355783496,5.3281312 L0.529090989,5.21927691 L5.00500766,8.03373331 C5.2527944,8.18842099 5.56646664,8.18842099 5.8128211,8.03373331 L10.2844409,5.22643837 L10.2858732,5.22500608 L10.2858732,5.22500608 Z M10.2858732,7.46081597 L10.4591807,7.56967027 C10.8143894,7.79310803 10.9218114,8.26146795 10.6983737,8.61810899 C10.6382173,8.71407264 10.5565766,8.79571336 10.4591807,8.85730197 L5.81425339,11.7748835 C5.56646664,11.9295712 5.2527944,11.9295712 5.00643995,11.7748835 L0.355783496,8.8515728 C0.000574748976,8.62813504 -0.106847251,8.15977512 0.116590509,7.80313408 C0.176746829,7.70717043 0.258387549,7.62552971 0.355783496,7.56394109 L0.529090989,7.4550868 L5.00500766,10.2681109 C5.2527944,10.4227986 5.56646664,10.4227986 5.8128211,10.2681109 L10.2844409,7.46081597 L10.2858732,7.46081597 L10.2858732,7.46081597 Z M5.80852422,0.118880347 L10.4577484,3.04219104 C10.8129571,3.2656288 10.9203791,3.73398872 10.6969414,4.09062976 C10.636785,4.18659341 10.5551443,4.26823413 10.4577484,4.32982275 L5.81425339,7.24597197 C5.56646664,7.40065965 5.2527944,7.40065965 5.00643995,7.24597197 L0.355783496,4.32122899 C0.000574748976,4.09779123 -0.106847251,3.62943131 0.116590509,3.27279027 C0.176746829,3.17682661 0.258387549,3.09518589 0.355783496,3.03359728 L5.00214307,0.11601576 C5.24992982,-0.03867192 5.56360206,-0.03867192 5.80995651,0.11601576 L5.80852422,0.118880347 Z" id="形状"></path>
            </g>
        </g>
    </g>
</svg>