<?xml version="1.0" encoding="UTF-8"?>
<svg width="12px" height="12px" viewBox="0 0 12 12" version="1.1" xmlns="http://www.w3.org/2000/svg" xmlns:xlink="http://www.w3.org/1999/xlink">
    <title>路径备份 90</title>
    <g id="UI" stroke="none" stroke-width="1" fill="none" fill-rule="evenodd">
        <g id="API开发" transform="translate(-200.000000, -204.000000)" fill="#1890FF" fill-rule="nonzero">
            <g id="流程-(1)" transform="translate(200.000000, 204.000000)">
                <path d="M11.9538636,9.43961648 C11.8007386,9.37903409 11.7030966,9.19038352 11.5163636,9.21703125 C11.04125,9.28451705 11.0103693,9.02261364 11.0216193,8.64421875 C11.0463352,7.80481534 11.0227415,6.96448864 11.0322727,6.12447443 C11.0367756,5.6871875 10.8325568,5.51416193 10.4056534,5.5178267 C9.2237358,5.52815341 8.04127841,5.50487216 6.859375,5.53240057 C6.49366477,5.54106534 6.38650568,5.42326705 6.44372159,5.0902983 C6.44647727,5.07517045 6.44372159,5.05923295 6.44428977,5.04380682 C6.45269886,4.60964489 6.30464489,4.06159091 6.51441761,3.77332386 C6.716875,3.49448864 7.29806818,3.69924716 7.71191761,3.68461648 C8.0743608,3.67200284 8.27576705,3.50544034 8.28026989,3.15171875 C8.29143466,2.28090909 8.28137784,1.40971591 8.28477273,0.538650568 C8.28588068,0.318664773 8.13497159,0.179261364 8.03403409,0.0124573864 L3.92673295,0.0124573864 C3.7315767,0.228678977 3.66426136,0.478835227 3.66988636,0.771974432 C3.68390625,1.51803977 3.66926136,2.26488636 3.6765767,3.01117898 C3.68164773,3.53598011 3.82129261,3.66863636 4.34127841,3.68069602 C4.37215909,3.68132102 4.40356534,3.67846591 4.43440341,3.68132102 C4.78556818,3.7118892 5.38242898,3.54359375 5.44352273,3.75390625 C5.59390625,4.27052557 5.52319602,4.8578125 5.50019886,5.41515625 C5.49180398,5.60697443 5.27022727,5.51727273 5.14903409,5.5178267 C3.98285511,5.52507102 2.81664773,5.52174716 1.65045455,5.52227273 C1.05923295,5.52258523 0.933551136,5.64230114 0.931846591,6.21867898 C0.929630682,7.1049858 0.923991477,7.99153409 0.935809659,8.87784091 C0.939176136,9.11146307 0.88640625,9.23634943 0.630071023,9.2009517 C0.379928977,9.16616477 0.195923295,9.31116477 0.00634943182,9.43963068 L0.00634943182,11.6797585 C0.0999715909,11.7731818 0.193139205,11.8665483 0.286789773,11.9599574 L2.99335227,11.9599574 C3.16444602,11.7493324 3.23346591,11.5122727 3.22504261,11.2380256 C3.2115483,10.7721165 3.22836648,10.3057102 3.2193892,9.83987216 C3.20934659,9.33809659 3.08203125,9.21923295 2.57205966,9.20041193 C1.85240057,9.1740625 1.85240057,9.1740625 1.85240057,8.45826705 C1.85240057,7.88357955 1.86191761,7.30859375 1.84789773,6.73426136 C1.84286932,6.51014205 1.91522727,6.44339489 2.13788352,6.44534091 C3.1784375,6.45578125 4.21960227,6.45518466 5.26009943,6.44565341 C5.46882102,6.44394886 5.52268466,6.51518466 5.52038352,6.71349432 C5.51082386,7.44348011 5.51025568,8.17392045 5.52038352,8.90396307 C5.52318182,9.11291193 5.48112216,9.1950142 5.24386364,9.20742898 C4.1337358,9.26383523 4.1343608,9.27301136 4.1343608,10.4119744 C4.1343608,10.6762926 4.14832386,10.9412358 4.13036932,11.2040483 C4.11076705,11.4991619 4.18985795,11.748196 4.39348011,11.9599574 L7.56730114,11.9599574 C7.77090909,11.748196 7.84325284,11.4991619 7.8309375,11.2040483 C7.81303977,10.7699432 7.83039773,10.3343182 7.8253267,9.8993608 C7.81862216,9.34759943 7.68455966,9.21491477 7.13701705,9.20039773 C6.44431818,9.18211648 6.44431818,9.18211648 6.44431818,8.48428977 C6.44431818,7.90971591 6.45491477,7.3347017 6.43866477,6.76026989 C6.43194602,6.52025568 6.49583807,6.44056818 6.7472017,6.44423295 C7.77210227,6.45826705 8.79744318,6.45573864 9.82286932,6.4453125 C10.0455824,6.44306818 10.1162358,6.51012784 10.1128551,6.73394886 C10.1005398,7.46399148 10.0994176,8.19431818 10.1128551,8.92414773 C10.117358,9.16394886 10.0130398,9.1956392 9.80828125,9.20482955 C8.7390625,9.25231534 8.7390625,9.25764205 8.7390625,10.3528551 C8.7390625,10.6325426 8.7509233,10.9127415 8.73575284,11.1914915 C8.72059659,11.4797869 8.7806108,11.7366903 8.96744318,11.9599574 L11.6739631,11.9599574 C11.7676136,11.8665341 11.8607528,11.7731534 11.9538636,11.6797159 L11.9538636,9.43961648 L11.9538636,9.43961648 Z" id="路径"></path>
            </g>
        </g>
    </g>
</svg>