<?xml version="1.0" encoding="UTF-8"?>
<svg width="24px" height="20px" viewBox="0 0 24 20" version="1.1" xmlns="http://www.w3.org/2000/svg" xmlns:xlink="http://www.w3.org/1999/xlink">
    <title>刷新备份 3</title>
    <g id="UI" stroke="none" stroke-width="1" fill="none" fill-rule="evenodd">
        <g id="新增-数据源生成1" transform="translate(-465.000000, -131.000000)" fill="#1890FF" fill-rule="nonzero">
            <g id="编组" transform="translate(409.000000, 124.000000)">
                <g id="刷新" transform="translate(56.000000, 7.000000)">
                    <path d="M2.70176639,4.44889407 C2.76287757,4.31444946 2.94621112,4.31444946 3.01954453,4.44889407 L3.01954453,4.44889407 L5.68399208,9.24001075 C5.7573255,9.37445535 5.67176984,9.52112219 5.52510301,9.52112219 L5.52510301,9.52112219 L3.57035288,9.52136091 C3.56954517,9.59054067 3.56954517,9.65972044 3.56954517,9.72890021 C3.56954517,14.1533498 7.16288269,17.7466873 11.5873323,17.7466873 C13.601945,17.7466873 15.5119167,17.0025741 16.9883875,15.6504278 C17.0106139,15.6228124 17.03695,15.5987771 17.0647099,15.5764395 C17.077206,15.5678799 17.0883965,15.5573002 17.0995609,15.5466848 C17.2419139,15.4473647 17.4143367,15.3877958 17.6006726,15.3877958 C18.0731838,15.3877958 18.4562292,15.7708412 18.4562292,16.2433524 L18.4562292,16.2433524 L18.4495632,16.3506716 C18.4291252,16.5139849 18.3626562,16.6629894 18.2635532,16.7842882 L18.2728956,16.7933529 C16.4517824,18.5166882 14.0806685,19.4578004 11.57511,19.4578004 C6.20954825,19.4578004 1.84620984,15.094462 1.84620984,9.72890021 L1.851,9.521 L0.183985679,9.52112219 C0.0663466535,9.52112219 -0.023219423,9.39947274 0.00535482905,9.28718095 L0.0250966055,9.24001075 Z M11.57511,8.77520279e-13 C16.5245207,8.77520279e-13 20.6591923,3.6663263 21.2388053,8.56709381 L22.9540122,8.56778775 C23.100679,8.56778775 23.1862347,8.71445458 23.1129012,8.84889919 L20.4484537,13.6400159 C20.3873425,13.7622382 20.204009,13.7622382 20.1306756,13.6400159 L17.4540058,8.84889919 C17.3806724,8.72667682 17.4784502,8.56778775 17.6128948,8.56778775 L19.5043917,8.56678541 C18.9369393,4.63229262 15.5860811,1.7111131 11.5628878,1.7111131 C9.98713711,1.7111131 8.48134286,2.16582999 7.17077071,3.01832481 C7.02988565,3.12715519 6.85316793,3.19000384 6.66177099,3.19000384 C6.18925981,3.19000384 5.80621444,2.80695847 5.80621444,2.33444729 L5.80621444,2.33444729 L5.81288044,2.22712803 C5.84873835,1.94059898 6.02628838,1.69811458 6.27317787,1.57202751 L6.13621483,1.66222416 C7.7373278,0.574445113 9.61955221,8.77520279e-13 11.57511,8.77520279e-13 Z" id="形状结合"></path>
                </g>
            </g>
        </g>
    </g>
</svg>