<?xml version="1.0" encoding="UTF-8"?>
<svg width="20px" height="20px" viewBox="0 0 20 20" version="1.1" xmlns="http://www.w3.org/2000/svg" xmlns:xlink="http://www.w3.org/1999/xlink">
    <title>形状</title>
    <g id="UI" stroke="none" stroke-width="1" fill="none" fill-rule="evenodd">
        <g id="编辑" transform="translate(-430.000000, -131.000000)" fill="#1890FF" fill-rule="nonzero">
            <g id="编组" transform="translate(409.000000, 124.000000)">
                <g id="保存(1)" transform="translate(21.000000, 7.000000)">
                    <path d="M19.8907209,6.30272239 L19.8907209,6.29074003 C19.8883244,6.2763612 19.8116373,5.81863497 19.7708972,5.66046779 C19.7277607,5.49750767 19.4234087,5.078125 19.4234087,5.078125 L19.2772239,4.92235429 L15.3302339,0.740509969 L15.2175997,0.623082822 C14.5058474,-0.0407400307 13.6047738,0.0167753067 13.6047738,0.0167753067 L13.4705713,0.00718407285 L3.57793328,0.00718407285 C1.6056365,0.00479294479 0,1.61282592 0,3.58991564 L0,16.3583206 C0,18.3354103 1.6056365,19.9434433 3.57793328,19.9434433 L16.315184,19.9434433 C18.2874808,19.9434433 19.8931173,18.3354103 19.8931173,16.3583206 L19.8931173,6.62384969 L19.8907209,6.30272239 Z M3.56115798,1.91717791 L13.3962807,1.91717791 L13.3962807,3.79840874 C13.3962807,4.92714724 12.4784317,5.84739264 11.3520897,5.84739264 L5.60534893,5.84739264 C4.4790069,5.84739264 3.56115798,4.92714724 3.56115798,3.79840874 L3.56115798,1.91717791 Z M16.3295629,18.0454371 L9.4181365,18.0454371 L9.4181365,13.1566334 L5.72756902,13.1566334 L5.72756902,18.0454371 L3.56115798,18.0454371 L3.56115798,12.3777799 C3.56115798,11.459931 4.30646089,10.7122316 5.22191334,10.7122316 L14.6640146,10.7122316 C15.579467,10.7122316 16.3247699,11.459931 16.3247699,12.3777799 L16.3247699,18.0454371 L16.3295629,18.0454371 Z" id="形状"></path>
                </g>
            </g>
        </g>
    </g>
</svg>